<svg width="233" height="218" viewBox="0 0 233 218" fill="none" xmlns="http://www.w3.org/2000/svg">
<path d="M99.3847 15.1411C85.9198 15.1411 73.3172 20.2997 63.7173 29.7546C44.0942 49.3777 44.0942 81.3211 63.7173 100.944C73.1722 110.399 85.7787 115.699 99.0985 115.699C99.0985 115.699 99.2436 115.699 99.3847 115.699C107.409 115.699 115.574 113.692 122.736 109.968V115.413C122.736 115.554 122.877 115.699 123.022 115.699H144.221C144.362 115.699 144.507 115.554 144.507 115.268C144.507 115.123 144.362 114.981 144.221 114.981C139.207 114.981 135.052 110.826 135.052 105.813V74.8729C135.052 70.8628 132.473 67.28 128.894 65.8492H134.625C134.911 65.8492 135.052 65.5631 135.052 65.418C135.052 65.1319 134.911 64.9907 134.625 64.9907H123.022H122.877C122.736 65.1319 122.736 65.2769 122.736 65.418V109.109C115.574 112.974 107.409 114.981 99.3847 114.981C99.2436 114.981 99.0985 114.981 99.0985 114.981C78.3308 114.695 61.4281 92.634 61.4281 65.418C61.4281 38.0609 78.4719 15.8585 99.3847 15.8585C107.695 15.8585 116.001 18.0066 123.163 22.0167H123.308C123.449 22.1617 123.735 22.3028 123.88 22.3028H124.021C127.749 24.4509 131.187 27.1753 134.335 30.1819V36.0539C134.335 36.34 134.48 36.4851 134.625 36.4851C134.911 36.4851 135.052 36.34 135.052 36.0539V15.4273C135.052 15.2862 134.911 15 134.625 15C134.48 15 134.335 15.2862 134.335 15.4273C134.335 19.2962 131.187 22.4478 127.318 22.4478C126.315 22.4478 125.311 22.1617 124.311 21.7305C124.021 21.5894 123.88 21.4443 123.594 21.3032C116.287 17.2892 107.836 15.1411 99.3847 15.1411Z" fill="#2B2B2B"/>
<path d="M158.247 132.014C154.292 136.102 144.277 152.574 132.152 170.762C119.761 189.48 106.583 200.42 85.7562 200.42C67.0425 200.42 54.6516 190.401 54.6516 179.068C54.6516 161.143 74.1571 149.806 90.2366 149.806C101.573 149.806 111.063 155.608 111.063 165.494C111.063 178.802 97.3552 185.92 85.6268 185.92C75.3449 185.92 70.5978 182.232 69.414 182.232C69.1514 182.232 68.6222 182.628 68.6222 182.89C68.6222 184.074 77.0579 187.504 86.2854 187.504C98.8056 187.504 112.643 178.935 112.643 165.623C112.643 152.97 100.519 145.855 87.2065 145.855C71.2603 145.855 51.2256 158.375 51.2256 176.43C51.2256 191.326 65.988 202 85.7562 202C111.326 202 135.841 186.579 147.703 159.296C161.544 127.533 165.099 127.008 165.099 125.162C165.099 124.899 164.574 124.632 164.178 124.632C161.015 124.632 141.247 151.915 122.529 151.915C118.178 151.915 115.281 149.544 115.281 140.978C115.281 138.736 115.94 135.836 116.861 133.993C147.44 130.83 183.817 109.741 183.817 94.4529C184.342 89.7059 180.391 86.2799 173.931 86.2799C164.311 86.2799 149.416 92.344 141.376 96.8245C133.469 87.8596 121.608 82.3247 109.613 82.3247C93.2707 82.3247 78.6376 92.8693 78.6376 110.003C78.6376 124.766 94.721 134.256 108.162 134.256C107.9 135.31 107.637 136.761 107.637 137.815C107.637 146.513 113.039 154.024 122.266 154.024C135.182 154.024 149.416 140.316 157.985 131.751L158.247 132.014ZM80.7465 107.632C80.7465 96.0327 91.8203 83.9084 108.692 83.9084C121.341 83.9084 132.678 89.0474 140.059 97.6163C127.539 105.26 114.622 114.88 109.217 128.984C96.434 128.984 80.7465 121.34 80.7465 107.632ZM182.233 94.1864C182.233 108.949 147.44 129.246 118.178 129.509C122.396 117.251 131.756 107.632 142.168 100.251C146.911 106.577 149.286 112.641 149.812 112.641C150.341 112.641 150.866 112.375 150.866 111.979C150.866 110.532 147.44 105.26 143.485 99.196C151.262 93.3985 164.178 87.8596 174.064 87.8596C179.862 87.8596 182.233 89.7059 182.233 94.1864Z" fill="#2B2B2B"/>
</svg>
