<svg xmlns="http://www.w3.org/2000/svg" xmlns:xlink="http://www.w3.org/1999/xlink" width="500" zoomAndPan="magnify" viewBox="0 0 375 374.999991" height="500" preserveAspectRatio="xMidYMid meet" version="1.0"><defs><g/></defs><g fill="#2b2b2b" fill-opacity="1"><g transform="translate(119.709764, 186.893501)"><g><path d="M 57.238281 -99.777344 C 43.820312 -99.777344 31.261719 -94.636719 21.695312 -85.214844 C 2.140625 -65.660156 2.140625 -33.828125 21.695312 -14.273438 C 31.117188 -4.851562 43.679688 0.429688 56.953125 0.429688 C 56.953125 0.429688 57.097656 0.429688 57.238281 0.429688 C 65.234375 0.429688 73.371094 -1.570312 80.507812 -5.28125 L 80.507812 0.144531 C 80.507812 0.285156 80.648438 0.429688 80.792969 0.429688 L 101.917969 0.429688 C 102.058594 0.429688 102.203125 0.285156 102.203125 0 C 102.203125 -0.144531 102.058594 -0.285156 101.917969 -0.285156 C 96.921875 -0.285156 92.78125 -4.425781 92.78125 -9.421875 L 92.78125 -40.253906 C 92.78125 -44.25 90.210938 -47.820312 86.644531 -49.246094 L 92.355469 -49.246094 C 92.640625 -49.246094 92.78125 -49.53125 92.78125 -49.675781 C 92.78125 -49.960938 92.640625 -50.101562 92.355469 -50.101562 L 80.792969 -50.101562 C 80.792969 -50.101562 80.648438 -50.101562 80.648438 -50.101562 C 80.507812 -49.960938 80.507812 -49.816406 80.507812 -49.675781 L 80.507812 -6.136719 C 73.371094 -2.285156 65.234375 -0.285156 57.238281 -0.285156 C 57.097656 -0.285156 56.953125 -0.285156 56.953125 -0.285156 C 36.257812 -0.570312 19.414062 -22.554688 19.414062 -49.675781 C 19.414062 -76.9375 36.398438 -99.0625 57.238281 -99.0625 C 65.519531 -99.0625 73.796875 -96.921875 80.933594 -92.925781 C 80.933594 -92.925781 81.078125 -92.925781 81.078125 -92.925781 C 81.21875 -92.78125 81.503906 -92.640625 81.648438 -92.640625 C 81.648438 -92.640625 81.789062 -92.640625 81.789062 -92.640625 C 85.503906 -90.5 88.929688 -87.785156 92.066406 -84.789062 L 92.066406 -78.9375 C 92.066406 -78.652344 92.210938 -78.507812 92.355469 -78.507812 C 92.640625 -78.507812 92.78125 -78.652344 92.78125 -78.9375 C 92.78125 -78.9375 92.78125 -99.492188 92.78125 -99.492188 C 92.78125 -99.632812 92.640625 -99.917969 92.355469 -99.917969 C 92.210938 -99.917969 92.066406 -99.632812 92.066406 -99.492188 C 92.066406 -95.636719 88.929688 -92.496094 85.074219 -92.496094 C 84.074219 -92.496094 83.074219 -92.78125 82.078125 -93.210938 C 81.789062 -93.351562 81.648438 -93.496094 81.363281 -93.636719 C 74.082031 -97.636719 65.660156 -99.777344 57.238281 -99.777344 Z M 57.238281 -99.777344 "/></g></g></g><g fill="#2b2b2b" fill-opacity="1"><g transform="translate(105.183125, 249.682589)"><g><path d="M 130.421875 -46.101562 C 126.480469 -42.027344 116.5 -25.613281 104.417969 -7.488281 C 92.070312 11.164062 78.9375 22.066406 58.183594 22.066406 C 39.535156 22.066406 27.1875 12.082031 27.1875 0.789062 C 27.1875 -17.074219 46.625 -28.371094 62.648438 -28.371094 C 73.945312 -28.371094 83.402344 -22.589844 83.402344 -12.738281 C 83.402344 0.523438 69.742188 7.617188 58.054688 7.617188 C 47.808594 7.617188 43.078125 3.941406 41.898438 3.941406 C 41.636719 3.941406 41.109375 4.335938 41.109375 4.597656 C 41.109375 5.777344 49.515625 9.195312 58.710938 9.195312 C 71.1875 9.195312 84.976562 0.65625 84.976562 -12.609375 C 84.976562 -25.21875 72.894531 -32.308594 59.628906 -32.308594 C 43.738281 -32.308594 23.773438 -19.832031 23.773438 -1.839844 C 23.773438 13.003906 38.484375 23.640625 58.183594 23.640625 C 83.664062 23.640625 108.09375 8.273438 119.914062 -18.914062 C 133.707031 -50.566406 137.25 -51.089844 137.25 -52.929688 C 137.25 -53.191406 136.726562 -53.457031 136.332031 -53.457031 C 133.179688 -53.457031 113.480469 -26.269531 94.828125 -26.269531 C 90.492188 -26.269531 87.605469 -28.632812 87.605469 -37.167969 C 87.605469 -39.402344 88.261719 -42.292969 89.179688 -44.128906 C 119.652344 -47.28125 155.902344 -68.296875 155.902344 -83.53125 C 156.425781 -88.261719 152.488281 -91.675781 146.050781 -91.675781 C 136.464844 -91.675781 121.621094 -85.632812 113.609375 -81.167969 C 105.730469 -90.101562 93.910156 -95.617188 81.957031 -95.617188 C 65.671875 -95.617188 51.089844 -85.109375 51.089844 -68.035156 C 51.089844 -53.324219 67.117188 -43.867188 80.511719 -43.867188 C 80.25 -42.816406 79.988281 -41.371094 79.988281 -40.320312 C 79.988281 -31.652344 85.371094 -24.167969 94.566406 -24.167969 C 107.4375 -24.167969 121.621094 -37.828125 130.160156 -46.363281 Z M 53.191406 -70.398438 C 53.191406 -81.957031 64.226562 -94.039062 81.039062 -94.039062 C 93.644531 -94.039062 104.941406 -88.917969 112.296875 -80.378906 C 99.820312 -72.761719 86.949219 -63.175781 81.5625 -49.121094 C 68.824219 -49.121094 53.191406 -56.738281 53.191406 -70.398438 Z M 154.324219 -83.796875 C 154.324219 -69.085938 119.652344 -48.859375 90.492188 -48.597656 C 94.695312 -60.8125 104.023438 -70.398438 114.398438 -77.753906 C 119.125 -71.449219 121.492188 -65.40625 122.015625 -65.40625 C 122.542969 -65.40625 123.066406 -65.671875 123.066406 -66.066406 C 123.066406 -67.507812 119.652344 -72.761719 115.710938 -78.804688 C 123.460938 -84.582031 136.332031 -90.101562 146.183594 -90.101562 C 151.960938 -90.101562 154.324219 -88.261719 154.324219 -83.796875 Z M 154.324219 -83.796875 "/></g></g></g></svg>