<svg width="135" height="187" viewBox="0 0 135 187" fill="none" xmlns="http://www.w3.org/2000/svg">
<path d="M50.3847 0.141117C36.9198 0.141117 24.3172 5.29973 14.7173 14.7546C-4.90578 34.3777 -4.90578 66.3211 14.7173 85.9443C24.1722 95.3991 36.7787 100.699 50.0985 100.699C50.0985 100.699 50.2436 100.699 50.3847 100.699C58.4088 100.699 66.574 98.6918 73.7357 94.9679V100.413C73.7357 100.554 73.8768 100.699 74.0218 100.699H95.2207C95.3619 100.699 95.5069 100.554 95.5069 100.268C95.5069 100.123 95.3619 99.9815 95.2207 99.9815C90.2072 99.9815 86.0521 95.8264 86.0521 90.8128V59.8729C86.0521 55.8628 83.4727 52.28 79.8939 50.8492H85.6248C85.9109 50.8492 86.0521 50.5631 86.0521 50.418C86.0521 50.1319 85.9109 49.9907 85.6248 49.9907H74.0218H73.8768C73.7357 50.1319 73.7357 50.2769 73.7357 50.418V94.1094C66.574 97.9745 58.4088 99.9815 50.3847 99.9815C50.2436 99.9815 50.0985 99.9815 50.0985 99.9815C29.3308 99.6953 12.4281 77.634 12.4281 50.418C12.4281 23.0609 29.4719 0.858463 50.3847 0.858463C58.6949 0.858463 67.0012 3.00658 74.1629 7.01666H74.308C74.4491 7.16169 74.7352 7.30281 74.8803 7.30281H75.0214C78.7492 9.45093 82.187 12.1753 85.3347 15.1819V21.0539C85.3347 21.34 85.4797 21.4851 85.6248 21.4851C85.9109 21.4851 86.0521 21.34 86.0521 21.0539V0.427271C86.0521 0.286155 85.9109 0 85.6248 0C85.4797 0 85.3347 0.286155 85.3347 0.427271C85.3347 4.29623 82.187 7.44785 78.318 7.44785C77.3146 7.44785 76.3111 7.1617 75.3115 6.7305C75.0214 6.58939 74.8803 6.44435 74.5941 6.30323C67.2874 2.28923 58.836 0.141117 50.3847 0.141117Z" fill="#FAFAFA"/>
<path d="M109.247 117.014C105.292 121.102 95.2767 137.574 83.1523 155.762C70.7615 174.48 57.5827 185.42 36.7562 185.42C18.0425 185.42 5.6516 175.401 5.6516 164.068C5.6516 146.143 25.1571 134.806 41.2366 134.806C52.573 134.806 62.0632 140.608 62.0632 150.494C62.0632 163.802 48.3552 170.92 36.6268 170.92C26.3449 170.92 21.5978 167.232 20.414 167.232C20.1514 167.232 19.6222 167.628 19.6222 167.89C19.6222 169.074 28.0579 172.504 37.2854 172.504C49.8056 172.504 63.6429 163.935 63.6429 150.623C63.6429 137.97 51.5186 130.855 38.2065 130.855C22.2603 130.855 2.22559 143.375 2.22559 161.43C2.22559 176.326 16.988 187 36.7562 187C62.3258 187 86.841 171.579 98.7027 144.296C112.544 112.533 116.099 112.008 116.099 110.162C116.099 109.899 115.574 109.632 115.178 109.632C112.015 109.632 92.2466 136.915 73.5289 136.915C69.1778 136.915 66.281 134.544 66.281 125.978C66.281 123.736 66.9396 120.836 67.8607 118.993C98.44 115.83 134.817 94.7406 134.817 79.4529C135.342 74.7059 131.391 71.2799 124.931 71.2799C115.311 71.2799 100.416 77.344 92.3759 81.8245C84.4694 72.8596 72.6078 67.3247 60.6128 67.3247C44.2707 67.3247 29.6376 77.8693 29.6376 95.0033C29.6376 109.766 45.721 119.256 59.1624 119.256C58.8998 120.31 58.6372 121.761 58.6372 122.815C58.6372 131.513 64.0388 139.024 73.2663 139.024C86.1824 139.024 100.416 125.316 108.985 116.751L109.247 117.014ZM31.7465 92.6317C31.7465 81.0327 42.8203 68.9084 59.6916 68.9084C72.3412 68.9084 83.6776 74.0474 91.0588 82.6163C78.5386 90.2602 65.6225 99.8797 60.2169 113.984C47.434 113.984 31.7465 106.34 31.7465 92.6317ZM133.233 79.1864C133.233 93.9488 98.44 114.246 69.1778 114.509C73.3957 102.251 82.7564 92.6317 93.1677 85.2505C97.9108 91.5773 100.286 97.6414 100.812 97.6414C101.341 97.6414 101.866 97.3748 101.866 96.9789C101.866 95.5325 98.44 90.2602 94.4848 84.196C102.262 78.3985 115.178 72.8596 125.064 72.8596C130.862 72.8596 133.233 74.7059 133.233 79.1864Z" fill="#FAFAFA"/>
</svg>
